<?xml version="1.0" encoding="utf-8"?>
<!-- Generator: Adobe Illustrator 24.1.2, SVG Export Plug-In . SVG Version: 6.00 Build 0)  -->
<svg version="1.0" id="svg5" xmlns:svg="http://www.w3.org/2000/svg"
	 xmlns="http://www.w3.org/2000/svg" xmlns:xlink="http://www.w3.org/1999/xlink" x="0px" y="0px" viewBox="0 0 558.6 117.9"
	 style="enable-background:new 0 0 558.6 117.9;" xml:space="preserve">
<style type="text/css">
	path {fill:#FFFFFF;}
</style>
<g id="firstletter">
	<path id="path794" class="st0" d="M31.8,31.6h-5.3c-2.3,0-3.9-0.6-4.9-1.7c-1-1.2-1.5-2.7-1.5-4.6c0-4.2,3.1-6.3,9.4-6.3
		c5.9,0,10.4,0.9,13.4,2.6l-2.5,1.9c-2.1-0.9-5.7-1.4-10.8-1.4c-2.5,0-4.2,0.3-5.1,0.8c-0.8,0.6-1.3,1.3-1.3,2.3
		c0,1,0.2,1.8,0.7,2.3c0.5,0.6,1.3,0.8,2.6,0.8h5.4c4,0,7.5,0.7,10.7,2c3.2,1.3,5.8,3.2,7.9,5.5c2.1,2.3,3.6,5,4.7,8
		c1.1,3,1.6,6.3,1.6,9.7c0,2.8-0.4,5.5-1.2,8c-0.8,2.5-2,4.8-3.6,6.9c-1.6,2.1-3.5,3.9-5.8,5.5c-2.2,1.5-4.9,2.7-8,3.6
		c-3.1,0.9-6.4,1.3-10,1.3c-5.7,0-11-0.9-15.9-2.6c-4.9-1.7-9-4.1-12.3-7.2l2.5-1.9c3,2.7,6.7,4.8,11.2,6.3
		c4.5,1.5,9.3,2.2,14.5,2.2c4,0,7.6-0.6,10.9-1.7c3.3-1.2,5.9-2.8,8-4.8c2.1-2,3.7-4.4,4.8-7c1.1-2.7,1.7-5.5,1.7-8.6
		c0-4.1-0.8-7.7-2.5-11c-1.6-3.3-4.1-6-7.5-8C40.3,32.7,36.3,31.6,31.8,31.6z M26.5,34.8h5c5.9,0,10.6,1.8,13.9,5.4
		c3.4,3.6,5.1,8.1,5.1,13.5c0,5.5-1.9,10-5.8,13.6c-3.9,3.6-9.4,5.4-16.4,5.4c-4.7,0-9.1-0.6-13.1-1.9c-4.1-1.3-7.5-3.1-10.2-5.4
		l2.5-2c2.4,2,5.4,3.5,9.1,4.6c3.7,1.1,7.6,1.6,11.8,1.6c6.2,0,10.9-1.5,14.2-4.4c3.3-3,4.9-6.8,4.9-11.4c0-4.6-1.4-8.3-4.1-11.3
		c-2.7-3-6.6-4.5-11.7-4.5h-5c-4.3,0-7.5-1.2-9.6-3.5c-2.1-2.3-3.2-5.4-3.2-9.1c0-3.7,1.3-6.8,4-9.1c2.7-2.3,6.7-3.5,12-3.5
		c3.7,0,7.2,0.4,10.4,1.3c3.2,0.8,5.8,2.1,7.9,3.7l-2.5,1.9c-3.7-2.5-8.9-3.8-15.8-3.8c-4.4,0-7.7,0.9-9.7,2.6c-2,1.7-3,4-3,6.9
		c0,2.9,0.7,5.2,2.2,6.9C20.6,33.9,23,34.8,26.5,34.8z M26.5,41.1h4.8c4.3,0,7.5,1.2,9.6,3.6c2.1,2.4,3.2,5.4,3.2,9.1
		c0,3.8-1.3,6.8-4,9.1c-2.6,2.3-6.6,3.5-11.9,3.5c-3.7,0-7.2-0.4-10.4-1.3c-3.2-0.9-5.8-2.1-7.9-3.7l2.5-1.9
		c3.7,2.5,8.9,3.8,15.8,3.8c4.4,0,7.6-0.9,9.7-2.6c2.1-1.8,3.1-4.1,3.1-6.9c0-2.8-0.8-5.1-2.3-6.9c-1.5-1.8-4-2.6-7.4-2.6h-4.8
		c-6,0-10.7-1.8-14.1-5.4C9,35.3,7.3,30.8,7.3,25.3c0-5.5,1.9-10,5.8-13.6c3.9-3.6,9.4-5.4,16.4-5.4c4.7,0,9.1,0.6,13.1,1.9
		c4.1,1.3,7.5,3.1,10.2,5.4l-2.5,2c-2.4-2-5.4-3.5-9.1-4.6c-3.6-1.1-7.5-1.6-11.7-1.6c-6.2,0-10.9,1.5-14.2,4.4
		c-3.3,3-4.9,6.8-4.9,11.4c0,4.6,1.4,8.4,4.1,11.4C17.3,39.7,21.3,41.1,26.5,41.1z M26.5,47.5h4.8c2.3,0,3.9,0.6,4.9,1.8
		c1,1.2,1.5,2.7,1.5,4.6c0,4.2-3.1,6.3-9.4,6.3c-5.9,0-10.4-0.9-13.4-2.6l2.5-1.9C19.4,56.5,23,57,28.2,57c2.5,0,4.2-0.3,5.1-0.8
		c0.9-0.6,1.3-1.3,1.3-2.3c0-1-0.2-1.7-0.7-2.3c-0.5-0.6-1.3-0.9-2.6-0.9h-4.7c-4,0-7.7-0.7-11-2c-3.3-1.3-5.9-3.1-8-5.4
		c-2.1-2.3-3.7-5-4.8-8c-1.1-3-1.7-6.3-1.7-9.8c0-2.8,0.4-5.5,1.2-8c0.8-2.5,2-4.8,3.6-6.9c1.6-2.1,3.5-3.9,5.8-5.4
		c2.3-1.6,4.9-2.8,8-3.6C22.6,0.4,25.9,0,29.5,0c5.7,0,10.9,0.9,15.9,2.6c4.9,1.7,9,4.1,12.3,7.2l-2.5,1.9c-3-2.7-6.7-4.8-11.2-6.2
		c-4.5-1.5-9.3-2.2-14.4-2.2c-4,0-7.6,0.6-10.9,1.8c-3.2,1.1-5.9,2.7-8,4.7c-2.1,2-3.7,4.4-4.8,7c-1.1,2.7-1.7,5.5-1.7,8.6
		c0,4.1,0.8,7.9,2.5,11.2c1.7,3.3,4.2,6,7.6,8C17.7,46.5,21.8,47.5,26.5,47.5z"/>
</g>
<g id="uppertext">
	<path id="path797" class="st0" d="M100,24.8c6.1,0,11,2.1,14.6,6.2c3.6,4.1,5.5,9.7,5.5,16.7v31.4h-18.8V50.3
		c0-3.1-0.8-5.5-2.4-7.2c-1.6-1.8-3.7-2.7-6.4-2.7c-2.8,0-5,0.9-6.6,2.7c-1.6,1.7-2.4,4.1-2.4,7.2v28.9H64.6v-71h18.8V33
		c1.7-2.4,3.9-4.4,6.7-5.9C93,25.6,96.3,24.8,100,24.8L100,24.8z"/>
	<path id="path799" class="st0" d="M139.9,20.3c-3.3,0-6-0.9-8.1-2.7c-2-1.9-3-4.2-3-6.9c0-2.8,1-5.2,3-7c2-1.9,4.7-2.8,8.1-2.8
		c3.3,0,5.9,0.9,7.9,2.8c2,1.9,3.1,4.2,3.1,7c0,2.8-1,5.1-3.1,6.9C145.8,19.4,143.2,20.3,139.9,20.3z M149.2,25.3v53.9h-18.8V25.3
		L149.2,25.3z"/>
	<path id="path801" class="st0" d="M193.7,79.1l-14.9-22.1v22.1H160v-71h18.8v38.3l14.9-21.1h22.6L195,52.4l21.6,26.8L193.7,79.1z"
		/>
	<path id="path803" class="st0" d="M231.6,20.3c-3.3,0-6-0.9-8.1-2.7c-2-1.9-3-4.2-3-6.9c0-2.8,1-5.2,3-7c2-1.9,4.7-2.8,8.1-2.8
		c3.3,0,5.9,0.9,7.9,2.8c2,1.9,3.1,4.2,3.1,7c0,2.8-1,5.1-3.1,6.9C237.5,19.4,234.9,20.3,231.6,20.3z M240.9,25.3v53.9h-18.8V25.3
		L240.9,25.3z"/>
	<path id="path805" class="st0" d="M274.6,79.8c-4.9,0-9.2-0.8-13.1-2.4c-3.8-1.7-6.8-3.9-9-6.7c-2.2-2.9-3.4-6.1-3.6-9.7h18.2
		c0.3,1.7,1.1,3.1,2.4,4c1.3,1,3,1.4,5,1.4c1.5,0,2.8-0.3,3.6-1c0.9-0.6,1.3-1.5,1.3-2.5c0-1.3-0.7-2.3-2.2-3
		c-1.5-0.6-3.9-1.3-7.3-2.1c-3.8-0.8-7-1.6-9.6-2.6c-2.6-1-4.8-2.5-6.7-4.7c-1.9-2.2-2.8-5.1-2.8-8.8c0-3.2,0.9-6.1,2.6-8.6
		c1.7-2.6,4.3-4.7,7.6-6.2c3.4-1.5,7.5-2.3,12.2-2.3c7,0,12.6,1.7,16.6,5.2c4,3.5,6.4,8,7,13.6h-17c-0.3-1.7-1.1-3-2.3-3.9
		c-1.2-1-2.7-1.4-4.7-1.4c-1.5,0-2.7,0.3-3.6,0.9c-0.8,0.6-1.2,1.4-1.2,2.4c0,1.3,0.7,2.3,2.2,3c1.5,0.6,3.8,1.3,7.1,2
		c3.9,0.8,7.1,1.8,9.7,2.8c2.6,1,4.9,2.7,6.8,5c2,2.2,3,5.3,3,9.2c0,3.1-0.9,6-2.8,8.4c-1.8,2.5-4.4,4.5-7.8,6
		C283.1,79.1,279.1,79.8,274.6,79.8L274.6,79.8z"/>
	<path id="path807" class="st0" d="M341.6,24.8c6.1,0,11,2.1,14.6,6.2c3.6,4.1,5.5,9.7,5.5,16.7v31.4h-18.8V50.3
		c0-3.1-0.8-5.5-2.4-7.2c-1.6-1.8-3.7-2.7-6.4-2.7c-2.8,0-5,0.9-6.6,2.7c-1.6,1.7-2.4,4.1-2.4,7.2v28.9h-18.8v-71H325V33
		c1.7-2.4,3.9-4.4,6.7-5.9C334.6,25.6,337.9,24.8,341.6,24.8z"/>
	<path id="path809" class="st0" d="M381.5,20.3c-3.3,0-6-0.9-8.1-2.7c-2-1.9-3-4.2-3-6.9c0-2.8,1-5.2,3-7c2-1.9,4.7-2.8,8.1-2.8
		c3.3,0,5.9,0.9,7.9,2.8c2,1.9,3.1,4.2,3.1,7c0,2.8-1,5.1-3.1,6.9C387.4,19.4,384.8,20.3,381.5,20.3z M390.9,25.3v53.9H372V25.3
		L390.9,25.3z"/>
	<path id="path811" class="st0" d="M472,24.8c6.8,0,12.1,2,15.9,6.1c3.9,4.1,5.9,9.7,5.9,16.8v31.4H475V50.3c0-2.9-0.8-5.1-2.4-6.7
		c-1.6-1.6-3.8-2.4-6.5-2.4s-4.9,0.8-6.5,2.4c-1.6,1.6-2.4,3.8-2.4,6.7v28.9h-18.8V50.3c0-2.9-0.8-5.1-2.4-6.7
		c-1.5-1.6-3.7-2.4-6.4-2.4c-2.8,0-5,0.8-6.6,2.4c-1.6,1.6-2.4,3.8-2.4,6.7v28.9h-18.8V25.3h18.8v7.1c1.7-2.3,3.8-4.1,6.4-5.5
		c2.7-1.4,5.8-2.1,9.2-2.1c4,0,7.5,0.9,10.6,2.6c3.1,1.7,5.6,4.2,7.4,7.3c1.9-2.9,4.4-5.3,7.6-7.1C464.7,25.7,468.2,24.8,472,24.8
		L472,24.8z"/>
	<path id="path813" class="st0" d="M501,52.2c0-5.6,1-10.4,3-14.6c2-4.2,4.8-7.4,8.3-9.6c3.5-2.2,7.4-3.4,11.7-3.4
		c3.7,0,6.9,0.7,9.6,2.2c2.7,1.5,4.8,3.5,6.2,6v-7.5h18.8v53.9h-18.8v-7.5c-1.5,2.5-3.6,4.5-6.3,6c-2.7,1.5-5.9,2.2-9.5,2.2
		c-4.3,0-8.2-1.1-11.7-3.4c-3.5-2.2-6.2-5.4-8.3-9.6C502,62.6,501,57.7,501,52.2L501,52.2z M539.8,52.2c0-3.5-1-6.2-2.9-8.2
		c-1.9-2-4.2-3-6.9-3c-2.8,0-5.2,1-7,3c-1.9,1.9-2.8,4.6-2.8,8.2c0,3.5,0.9,6.2,2.8,8.3c1.9,2,4.2,3,7,3c2.8,0,5.1-1,6.9-3
		C538.8,58.4,539.8,55.7,539.8,52.2z"/>
</g>
<g id="lowertext">
	<path id="path816" class="st0" d="M4.2,94.5c0.5-1,1.2-1.8,2.2-2.3c1-0.6,2.1-0.8,3.5-0.8v3H9.1c-3.3,0-4.9,1.8-4.9,5.3v9.5H1.2
		V91.7h2.9L4.2,94.5z"/>
	<path id="path818" class="st0" d="M44.4,99.8c0,0.6,0,1.1-0.1,1.8h-14c0.1,1.7,0.7,3.1,1.8,4.1c1.1,1,2.4,1.4,3.9,1.4
		c1.3,0,2.3-0.3,3.1-0.9c0.9-0.6,1.5-1.4,1.8-2.4h3.1c-0.5,1.7-1.4,3.1-2.8,4.1c-1.4,1-3.2,1.6-5.2,1.6c-1.7,0-3.2-0.4-4.5-1.1
		c-1.3-0.7-2.3-1.8-3.1-3.2c-0.7-1.4-1.1-3-1.1-4.8c0-1.8,0.4-3.4,1.1-4.8c0.7-1.4,1.7-2.4,3-3.1c1.3-0.7,2.8-1.1,4.5-1.1
		c1.7,0,3.1,0.4,4.4,1.1c1.3,0.7,2.3,1.7,2.9,3C44.1,96.8,44.4,98.2,44.4,99.8L44.4,99.8z M41.4,99.2c0-1.1-0.2-2.1-0.7-2.8
		c-0.5-0.8-1.2-1.4-2-1.8c-0.8-0.4-1.8-0.6-2.8-0.6c-1.5,0-2.7,0.5-3.8,1.4c-1,0.9-1.6,2.2-1.8,3.9L41.4,99.2z"/>
	<path id="path820" class="st0" d="M62.5,100.4c0-1.8,0.4-3.4,1.1-4.7c0.7-1.4,1.7-2.4,3-3.2c1.3-0.7,2.7-1.1,4.3-1.1
		c1.5,0,2.9,0.3,4,1c1.1,0.7,2,1.5,2.5,2.5v-3.2h2.9v17.5h-2.9V106c-0.6,1-1.4,1.9-2.6,2.6c-1.1,0.7-2.5,1-4,1c-1.6,0-3-0.4-4.2-1.2
		c-1.3-0.8-2.3-1.8-3-3.2C62.8,103.8,62.5,102.2,62.5,100.4L62.5,100.4z M77.3,100.4c0-1.3-0.3-2.5-0.8-3.5c-0.5-1-1.3-1.7-2.2-2.2
		c-0.9-0.5-1.9-0.8-3-0.8c-1.1,0-2.1,0.3-3,0.8c-0.9,0.5-1.6,1.3-2.1,2.2c-0.5,1-0.8,2.1-0.8,3.5c0,1.3,0.3,2.5,0.8,3.5
		c0.5,1,1.2,1.7,2.1,2.3c0.9,0.5,1.9,0.8,3,0.8c1.1,0,2.1-0.3,3-0.8c0.9-0.5,1.6-1.3,2.2-2.3C77,102.9,77.3,101.8,77.3,100.4
		L77.3,100.4z"/>
	<path id="path822" class="st0" d="M103.4,85.6v23.7h-2.9V85.6H103.4z"/>
	<path id="path824" class="st0" d="M163.4,99.8c0,0.6,0,1.1-0.1,1.8h-14c0.1,1.7,0.7,3.1,1.8,4.1c1.1,1,2.4,1.4,3.9,1.4
		c1.3,0,2.3-0.3,3.1-0.9c0.9-0.6,1.5-1.4,1.8-2.4h3.1c-0.5,1.7-1.4,3.1-2.8,4.1c-1.4,1-3.2,1.6-5.2,1.6c-1.7,0-3.2-0.4-4.5-1.1
		c-1.3-0.7-2.3-1.8-3.1-3.2c-0.7-1.4-1.1-3-1.1-4.8c0-1.8,0.4-3.4,1.1-4.8c0.7-1.4,1.7-2.4,3-3.1c1.3-0.7,2.8-1.1,4.5-1.1
		c1.7,0,3.1,0.4,4.4,1.1c1.3,0.7,2.3,1.7,2.9,3C163,96.8,163.4,98.2,163.4,99.8L163.4,99.8z M160.4,99.2c0-1.1-0.2-2.1-0.7-2.8
		c-0.5-0.8-1.2-1.4-2-1.8c-0.8-0.4-1.8-0.6-2.8-0.6c-1.5,0-2.7,0.5-3.8,1.4c-1,0.9-1.6,2.2-1.8,3.9L160.4,99.2z"/>
	<path id="path826" class="st0" d="M188.7,109.5c-1.3,0-2.5-0.2-3.6-0.7c-1.1-0.5-1.9-1.1-2.5-1.9c-0.6-0.8-1-1.8-1-2.8h3
		c0.1,0.9,0.5,1.6,1.2,2.1c0.7,0.6,1.7,0.8,2.9,0.8c1.1,0,2-0.2,2.6-0.7c0.6-0.5,1-1.1,1-1.9c0-0.8-0.3-1.3-1-1.7
		c-0.7-0.4-1.7-0.8-3.2-1.1c-1.3-0.3-2.4-0.7-3.2-1c-0.8-0.4-1.5-0.9-2.1-1.6c-0.6-0.7-0.9-1.6-0.9-2.8c0-0.9,0.3-1.7,0.8-2.5
		c0.5-0.7,1.3-1.3,2.3-1.8c1-0.4,2.1-0.7,3.4-0.7c1.9,0,3.5,0.5,4.7,1.5s1.8,2.3,1.9,4H192c-0.1-0.9-0.4-1.7-1.1-2.2
		c-0.7-0.6-1.6-0.8-2.7-0.8c-1,0-1.9,0.2-2.5,0.7c-0.6,0.4-0.9,1-0.9,1.8c0,0.6,0.2,1.1,0.5,1.4c0.4,0.4,0.9,0.7,1.4,0.9
		c0.6,0.2,1.4,0.5,2.4,0.7c1.3,0.3,2.3,0.7,3.1,1c0.8,0.3,1.5,0.8,2,1.5c0.6,0.7,0.9,1.5,0.9,2.6c0,1-0.3,1.8-0.8,2.6
		c-0.5,0.8-1.3,1.4-2.3,1.8C191.1,109.3,190,109.5,188.7,109.5L188.7,109.5z"/>
	<path id="path828" class="st0" d="M218,94.1v10.3c0,0.9,0.2,1.5,0.5,1.8c0.4,0.3,1,0.5,1.9,0.5h2.1v2.5H220c-1.6,0-2.8-0.4-3.6-1.1
		c-0.8-0.7-1.2-2-1.2-3.7V94.1h-2.3v-2.4h2.3v-4.4h2.9v4.4h4.6v2.4L218,94.1z"/>
	<path id="path830" class="st0" d="M240.3,100.4c0-1.8,0.4-3.4,1.1-4.7c0.7-1.4,1.7-2.4,3-3.2c1.3-0.7,2.7-1.1,4.3-1.1
		c1.5,0,2.9,0.3,4,1c1.1,0.7,2,1.5,2.5,2.5v-3.2h2.9v17.5h-2.9V106c-0.6,1-1.4,1.9-2.6,2.6c-1.1,0.7-2.5,1-4,1c-1.6,0-3-0.4-4.2-1.2
		c-1.3-0.8-2.3-1.8-3-3.2C240.6,103.8,240.3,102.2,240.3,100.4L240.3,100.4z M255.1,100.4c0-1.3-0.3-2.5-0.8-3.5
		c-0.5-1-1.3-1.7-2.2-2.2c-0.9-0.5-1.9-0.8-3-0.8c-1.1,0-2.1,0.3-3,0.8c-0.9,0.5-1.6,1.3-2.1,2.2c-0.5,1-0.8,2.1-0.8,3.5
		c0,1.3,0.3,2.5,0.8,3.5c0.5,1,1.2,1.7,2.1,2.3c0.9,0.5,1.9,0.8,3,0.8c1.1,0,2.1-0.3,3-0.8c0.9-0.5,1.6-1.3,2.2-2.3
		C254.9,102.9,255.1,101.8,255.1,100.4L255.1,100.4z"/>
	<path id="path832" class="st0" d="M281.8,94.1v10.3c0,0.9,0.2,1.5,0.5,1.8c0.4,0.3,1,0.5,1.9,0.5h2.1v2.5h-2.6
		c-1.6,0-2.8-0.4-3.6-1.1s-1.2-2-1.2-3.7V94.1h-2.3v-2.4h2.3v-4.4h2.9v4.4h4.6v2.4L281.8,94.1z"/>
	<path id="path834" class="st0" d="M321.2,99.8c0,0.6,0,1.1-0.1,1.8h-14c0.1,1.7,0.7,3.1,1.8,4.1c1.1,1,2.4,1.4,3.9,1.4
		c1.3,0,2.3-0.3,3.1-0.9c0.9-0.6,1.5-1.4,1.8-2.4h3.1c-0.5,1.7-1.4,3.1-2.8,4.1c-1.4,1-3.2,1.6-5.2,1.6c-1.7,0-3.2-0.4-4.5-1.1
		c-1.3-0.7-2.3-1.8-3.1-3.2c-0.7-1.4-1.1-3-1.1-4.8c0-1.8,0.4-3.4,1.1-4.8c0.7-1.4,1.7-2.4,3-3.1c1.3-0.7,2.8-1.1,4.5-1.1
		c1.7,0,3.1,0.4,4.4,1.1c1.3,0.7,2.3,1.7,2.9,3C320.8,96.8,321.2,98.2,321.2,99.8L321.2,99.8z M318.2,99.2c0-1.1-0.2-2.1-0.7-2.8
		c-0.5-0.8-1.2-1.4-2-1.8c-0.8-0.4-1.8-0.6-2.8-0.6c-1.5,0-2.7,0.5-3.8,1.4c-1,0.9-1.6,2.2-1.8,3.9L318.2,99.2z"/>
	<path id="path836" class="st0" d="M363,100.4c0-1.8,0.4-3.4,1.1-4.7c0.7-1.4,1.7-2.4,3-3.2c1.3-0.7,2.7-1.1,4.3-1.1
		c1.5,0,2.9,0.3,4,1c1.1,0.7,2,1.5,2.5,2.5v-3.2h2.9v17.5h-2.9V106c-0.6,1-1.4,1.9-2.6,2.6c-1.1,0.7-2.5,1-4,1c-1.6,0-3-0.4-4.2-1.2
		c-1.3-0.8-2.3-1.8-3-3.2C363.4,103.8,363,102.2,363,100.4L363,100.4z M377.8,100.4c0-1.3-0.3-2.5-0.8-3.5c-0.5-1-1.3-1.7-2.2-2.2
		c-0.9-0.5-1.9-0.8-3-0.8c-1.1,0-2.1,0.3-3,0.8c-0.9,0.5-1.6,1.3-2.1,2.2c-0.5,1-0.8,2.1-0.8,3.5c0,1.3,0.3,2.5,0.8,3.5
		c0.5,1,1.2,1.7,2.1,2.3c0.9,0.5,1.9,0.8,3,0.8c1.1,0,2.1-0.3,3-0.8c0.9-0.5,1.6-1.3,2.2-2.3C377.6,102.9,377.8,101.8,377.8,100.4
		L377.8,100.4z"/>
	<path id="path838" class="st0" d="M408.2,91.4c1.5,0,2.8,0.3,4,1c1.2,0.7,2,1.5,2.6,2.5v-3.2h2.9v17.9c0,1.6-0.3,3-1,4.3
		c-0.7,1.3-1.7,2.2-2.9,2.9c-1.3,0.7-2.7,1.1-4.4,1.1c-2.3,0-4.2-0.5-5.8-1.6c-1.5-1.1-2.4-2.6-2.7-4.4h2.9c0.3,1.1,1,1.9,2,2.6
		c1,0.7,2.2,1,3.6,1c1.6,0,2.9-0.5,3.9-1.5c1-1,1.5-2.4,1.5-4.2v-3.7c-0.6,1-1.4,1.9-2.6,2.6c-1.1,0.7-2.5,1-4,1
		c-1.6,0-3-0.4-4.3-1.2c-1.3-0.8-2.3-1.8-3-3.2c-0.7-1.4-1.1-3-1.1-4.7c0-1.8,0.4-3.4,1.1-4.7c0.7-1.4,1.7-2.4,3-3.2
		C405.2,91.8,406.6,91.4,408.2,91.4L408.2,91.4z M414.7,100.4c0-1.3-0.3-2.5-0.8-3.5c-0.5-1-1.3-1.7-2.2-2.2c-0.9-0.5-1.9-0.8-3-0.8
		c-1.1,0-2.1,0.3-3,0.8c-0.9,0.5-1.6,1.3-2.1,2.2c-0.5,1-0.8,2.1-0.8,3.5c0,1.3,0.3,2.5,0.8,3.5c0.5,1,1.2,1.7,2.1,2.3
		c0.9,0.5,1.9,0.8,3,0.8c1.1,0,2.1-0.3,3-0.8c0.9-0.5,1.6-1.3,2.2-2.3C414.5,102.9,414.7,101.8,414.7,100.4L414.7,100.4z"/>
	<path id="path840" class="st0" d="M453.9,99.8c0,0.6,0,1.1-0.1,1.8h-14c0.1,1.7,0.7,3.1,1.8,4.1c1.1,1,2.4,1.4,3.9,1.4
		c1.3,0,2.3-0.3,3.1-0.9c0.9-0.6,1.5-1.4,1.8-2.4h3.1c-0.5,1.7-1.4,3.1-2.8,4.1c-1.4,1-3.2,1.6-5.2,1.6c-1.7,0-3.2-0.4-4.5-1.1
		c-1.3-0.7-2.3-1.8-3.1-3.2c-0.7-1.4-1.1-3-1.1-4.8c0-1.8,0.4-3.4,1.1-4.8c0.7-1.4,1.7-2.4,3-3.1c1.3-0.7,2.8-1.1,4.5-1.1
		c1.7,0,3.1,0.4,4.4,1.1c1.3,0.7,2.3,1.7,2.9,3C453.5,96.8,453.9,98.2,453.9,99.8L453.9,99.8z M450.9,99.2c0-1.1-0.2-2.1-0.7-2.8
		c-0.5-0.8-1.2-1.4-2-1.8c-0.8-0.4-1.8-0.6-2.8-0.6c-1.5,0-2.7,0.5-3.8,1.4c-1,0.9-1.6,2.2-1.8,3.9L450.9,99.2z"/>
	<path id="path842" class="st0" d="M481.5,91.4c2.1,0,3.9,0.7,5.2,2c1.3,1.3,2,3.1,2,5.6v10.3h-2.9v-9.9c0-1.7-0.4-3.1-1.3-4
		c-0.9-0.9-2.1-1.4-3.6-1.4c-1.5,0-2.8,0.5-3.7,1.4c-0.9,1-1.3,2.4-1.3,4.2v9.7H473V91.7h2.9v2.5c0.6-0.9,1.4-1.6,2.3-2.1
		C479.2,91.6,480.3,91.4,481.5,91.4L481.5,91.4z"/>
	<path id="path844" class="st0" d="M507.6,100.4c0-1.8,0.4-3.4,1.1-4.7c0.7-1.4,1.7-2.4,3-3.2c1.3-0.7,2.8-1.1,4.4-1.1
		c2.2,0,3.9,0.5,5.3,1.6c1.4,1,2.3,2.5,2.8,4.4h-3.1c-0.3-1.1-0.9-1.9-1.8-2.5c-0.9-0.6-1.9-0.9-3.2-0.9c-1.7,0-3,0.6-4,1.7
		c-1,1.1-1.5,2.7-1.5,4.8c0,2.1,0.5,3.7,1.5,4.9c1,1.2,2.4,1.7,4,1.7c1.3,0,2.3-0.3,3.2-0.9c0.9-0.6,1.4-1.5,1.8-2.6h3.1
		c-0.5,1.8-1.4,3.2-2.8,4.3c-1.4,1.1-3.2,1.6-5.3,1.6c-1.7,0-3.1-0.4-4.4-1.1c-1.3-0.7-2.3-1.8-3-3.2
		C508,103.9,507.6,102.3,507.6,100.4L507.6,100.4z"/>
	<path id="path846" class="st0" d="M558.5,91.7l-10.6,25.8h-3l3.5-8.4l-7.1-17.3h3.2l5.5,14.2l5.4-14.2H558.5z"/>
</g>
</svg>
